HIERARCHY
ROOT root
{
	OFFSET	0	13.1	24.9
	CHANNELS 6  Xposition Yposition Zposition Xrotation Yrotation Zrotation
	JOINT spine_1
	{
		OFFSET	0	9.99999	0
		CHANNELS 3  Xrotation Yrotation Zrotation
		JOINT spine_2
		{
			OFFSET	0	112	-10
			CHANNELS 3  Xrotation Yrotation Zrotation
			JOINT spine_3
			{
				OFFSET	0	206.5	19.3
				CHANNELS 3  Xrotation Yrotation Zrotation
				JOINT spine_4
				{
					OFFSET	0	110.4	14.6
					CHANNELS 3  Xrotation Yrotation Zrotation
					JOINT neck_1
					{
						OFFSET	0	71.8	-50.3
						CHANNELS 3  Xrotation Yrotation Zrotation
						JOINT neck_2
						{
							OFFSET	0	86.2	-25.8
							CHANNELS 3  Xrotation Yrotation Zrotation
							JOINT head_ee
							{
								OFFSET	0	179.8	-8.7
								CHANNELS 3  Xrotation Yrotation Zrotation
								End Site
								{
									OFFSET	1	0	0
								}
							}
						}
					}
					JOINT left_clavicle
					{
						OFFSET	-43.2	22.4	-70.8
						CHANNELS 3  Xrotation Yrotation Zrotation
						JOINT left_shoulder
						{
							OFFSET	-93.9	-5.79999	48.7
							CHANNELS 3  Xrotation Yrotation Zrotation
							JOINT left_elbow
							{
								OFFSET	-291.4	-30.8	15.2
								CHANNELS 3  Xrotation Yrotation Zrotation
								JOINT left_lowarm_twist
								{
									OFFSET	-110.7	-3.89999	13.6
									CHANNELS 3  Xrotation Yrotation Zrotation
									JOINT left_hand
									{
										OFFSET	-110.7	-3.89999	13.6
										CHANNELS 3  Xrotation Yrotation Zrotation
										JOINT left_ee
										{
											OFFSET	-80.8	-5.10001	12.1
											CHANNELS 3  Xrotation Yrotation Zrotation
											End Site
											{
												OFFSET	1	0	0
											}
										}
									}
								}
							}
						}
					}
					JOINT right_clavicle
					{
						OFFSET	43.2	22.4	-70.8
						CHANNELS 3  Xrotation Yrotation Zrotation
						JOINT right_shoulder
						{
							OFFSET	93.9	-5.79999	48.7
							CHANNELS 3  Xrotation Yrotation Zrotation
							JOINT right_elbow
							{
								OFFSET	291.4	-30.8	15.2
								CHANNELS 3  Xrotation Yrotation Zrotation
								JOINT right_lowarm_twist
								{
									OFFSET	110.7	-3.89999	13.6
									CHANNELS 3  Xrotation Yrotation Zrotation
									JOINT right_hand
									{
										OFFSET	110.7	-3.89999	13.6
										CHANNELS 3  Xrotation Yrotation Zrotation
										JOINT right_ee
										{
											OFFSET	80.8	-5.10001	12.1
											CHANNELS 3  Xrotation Yrotation Zrotation
											End Site
											{
												OFFSET	1	0	0
											}
										}
									}
								}
							}
						}
					}
				}
			}
		}
	}
	JOINT left_hip
	{
		OFFSET	-82.8	-127.5	0.300001
		CHANNELS 3  Xrotation Yrotation Zrotation
		JOINT left_knee
		{
			OFFSET	-28.2	-396.7	2.2
			CHANNELS 3  Xrotation Yrotation Zrotation
			JOINT left_ankle
			{
				OFFSET	-11.7	-411.3	35.4
				CHANNELS 3  Xrotation Yrotation Zrotation
				JOINT left_toes
				{
					OFFSET	0	-60	-88.6
					CHANNELS 3  Xrotation Yrotation Zrotation
					JOINT left_foot_ee
					{
						OFFSET	-22.5	-16.5	-42.2
						CHANNELS 3  Xrotation Yrotation Zrotation
						End Site
						{
							OFFSET	1	0	0
						}
					}
				}
			}
		}
	}
	JOINT right_hip
	{
		OFFSET	82.8	-127.5	0.300001
		CHANNELS 3  Xrotation Yrotation Zrotation
		JOINT right_knee
		{
			OFFSET	28.2	-396.7	2.2
			CHANNELS 3  Xrotation Yrotation Zrotation
			JOINT right_ankle
			{
				OFFSET	11.7	-411.3	35.4
				CHANNELS 3  Xrotation Yrotation Zrotation
				JOINT right_toes
				{
					OFFSET	0	-60	-88.6
					CHANNELS 3  Xrotation Yrotation Zrotation
					JOINT right_foot_ee
					{
						OFFSET	22.5	-16.5	-42.2
						CHANNELS 3  Xrotation Yrotation Zrotation
						End Site
						{
							OFFSET	1	0	0
						}
					}
				}
			}
		}
	}
}
MOTION
Frames: 7
Frame Time: 0.02
1704.63 659.288 -1499.3 -44.0497 79.4462 43.5555 3.37816 0.431036 2.07831 3.38051 0.297944 2.10152 3.39051 -0.0248661 2.12238 3.38436 0.310561 2.09969 -22.411 8.83003 0.69731 -22.9024 16.7099 4.79699 -0.0 0.0 -0.0 -2.78967 23.2982 -1.13775 -25.6438 -2.16947 70.4349 0.363189 -10.1994 0.0324118 -45.0212 -3.50029 4.39751 2.50837 4.71486 18.8295 -0.0 0.0 -0.0 12.6052 19.6309 -25.3547 1.45642 23.4174 -59.6479 2.44534 50.4516 -1.15217 71.5903 2.90704 8.06651 3.04681 2.36784 -19.8608 0.0 0.0 0.0 38.3387 5.3651 -11.7241 -7.84716 0.242667 1.17892 -1.71711 -6.54714 0.261208 -3.4007 0.0 0.0 -0.0 0.0 -0.0 -12.8834 -8.48927 4.61692 -7.29227 -0.230838 -1.09459 38.6353 15.8314 5.07064 -10.9178 0.0 0.0 0.0 0.0 0.0 
1687.27 661.475 -1492.47 -46.419 78.9719 46.1295 3.2626 0.323928 2.10995 3.26506 0.189041 2.12627 3.27116 -0.140782 2.13001 3.26488 0.197302 2.12552 -22.0336 9.38863 0.709203 -22.5781 17.776 5.02062 -0.0 0.0 -0.0 -2.63257 23.0816 -0.961684 -24.7843 -2.03758 71.1252 0.365535 -10.2638 0.0328285 -44.8208 -3.47782 4.385 2.7728 4.46583 20.5942 -0.0 0.0 -0.0 12.698 19.6391 -25.5689 0.796998 23.1518 -59.48 2.42596 50.2278 -1.13726 71.1362 2.85911 8.03336 3.02166 1.56895 -20.01 0.0 0.0 0.0 37.9766 5.32151 -11.5536 -7.39637 0.233119 1.1104 -0.744761 -8.98792 0.114436 -4.55705 0.0 0.0 -0.0 0.0 -0.0 -12.2307 -8.40429 5.23873 -8.26527 -0.251039 -1.24253 37.74 16.1763 4.99928 -9.68436 0.0 0.0 0.0 0.0 0.0 
1671.53 659.714 -1487.43 -46.1355 78.5002 46.0345 3.43651 0.291072 2.06698 3.43887 0.158984 2.08131 3.44364 -0.157301 2.08143 3.43764 0.173324 2.08016 -20.8648 9.79522 1.11382 -21.3951 18.3414 5.38216 -0.0 0.0 -0.0 -2.62941 22.8824 -0.994556 -23.4292 -2.05658 71.3905 0.378488 -10.6194 0.0351761 -44.4628 -3.43779 4.36244 2.91116 4.73652 21.6758 -0.0 0.0 -0.0 12.7264 19.5995 -25.6376 -0.421932 22.4395 -59.6626 2.45665 50.5813 -1.1609 70.9017 2.83447 8.0161 2.85042 0.666669 -19.1565 0.0 0.0 0.0 37.7519 5.29514 -11.5969 -7.64894 0.238535 1.14878 -1.03872 -9.23373 0.159938 -5.14295 0.0 0.0 -0.0 0.0 -0.0 -12.3708 -8.09222 5.87826 -6.93959 -0.222895 -1.04105 38.2761 17.2358 5.08657 -8.24532 0.0 0.0 0.0 0.0 0.0 
1650.77 661.202 -1481.53 -44.8466 77.3401 44.8355 3.49698 0.277494 1.96347 3.49912 0.152016 1.97714 3.50342 -0.146384 1.97757 3.498 0.167711 1.97587 -19.9256 10.2621 2.0014 -20.4318 18.7636 6.23961 -0.0 0.0 -0.0 -2.86363 23.3234 -1.23487 -21.4444 -2.69958 70.7436 0.42481 -11.884 0.0442149 -44.2489 -3.41394 4.34885 3.09677 4.14612 22.7853 -0.0 0.0 -0.0 12.632 19.5408 -25.4227 -1.4214 22.0185 -59.9253 2.48136 50.8622 -1.18003 69.49 2.68762 7.91003 2.89871 -1.35497 -20.3023 0.0 0.0 0.0 37.7384 5.1666 -11.6836 -10.5509 0.288588 1.59122 1.25366 -8.55068 -0.191169 -5.46501 0.0 0.0 -0.0 0.0 -0.0 -12.1786 -8.0186 6.39501 -6.11331 -0.202997 -0.91581 38.4191 17.8051 5.12086 -7.34131 0.0 0.0 0.0 0.0 0.0 
1631.26 664.662 -1472.41 -42.204 77.3019 41.9331 3.28596 0.303593 2.12747 3.28846 0.167633 2.14247 3.29377 -0.1636 2.14278 3.28741 0.176786 2.14173 -20.1897 10.2515 2.70148 -20.6748 18.4056 6.92369 -0.0 0.0 -0.0 -3.37695 23.8805 -1.82662 -18.1492 -3.37139 71.5196 0.440506 -12.31 0.0475044 -45.9569 -3.60578 4.45492 3.10559 5.40826 23.3129 -0.0 0.0 -0.0 12.422 18.2173 -25.02 -2.82949 20.9279 -60.9012 2.46415 50.667 -1.1667 68.2441 2.56023 7.81346 2.7298 -4.64117 -20.3556 0.0 0.0 0.0 38.0124 5.16278 -11.6016 -20.7092 0.286534 3.1478 10.0414 -9.45113 -1.49489 -5.58266 0.0 0.0 -0.0 0.0 -0.0 -11.8089 -5.42571 8.34231 -10.072 -0.281873 -1.51804 37.8895 16.8607 5.03701 -6.53384 0.0 0.0 0.0 0.0 0.0 
1612.16 667.389 -1467.32 -43.1132 77.1379 42.9799 3.19547 0.358597 2.15217 3.19802 0.220955 2.17062 3.20549 -0.118559 2.17861 3.19894 0.226916 2.17 -19.1353 10.7208 3.92068 -19.5623 18.6109 8.05093 -0.0 0.0 -0.0 -3.32882 23.4572 -1.84915 -16.7618 -3.96581 70.8479 0.498219 -13.8639 0.0605734 -44.8759 -3.484 4.38845 3.32423 5.48641 24.9243 -0.0 0.0 -0.0 12.1797 17.3106 -24.511 -3.94256 20.0075 -61.402 2.40339 49.9645 -1.11994 65.8414 2.32066 7.61956 2.3653 -6.84585 -18.616 0.0 0.0 0.0 37.2376 5.19328 -11.6814 -22.8273 0.251355 3.4709 12.3911 -9.99059 -1.83298 -5.23049 0.0 0.0 -0.0 0.0 -0.0 -12.1367 -5.77737 8.82102 -9.72015 -0.27655 -1.46432 37.6065 17.5516 5.03519 -5.37736 0.0 0.0 0.0 0.0 0.0 
1585.87 674.349 -1461.68 -43.414 77.2539 43.1801 3.12552 0.314549 2.04614 3.12783 0.183738 2.062 3.13367 -0.141077 2.06536 3.12776 0.186807 2.06173 -16.452 11.9796 4.25253 -16.8485 20.583 8.35078 -0.0 0.0 -0.0 -3.70412 23.7391 -2.30477 -14.4244 -4.85107 71.4648 0.542642 -15.0461 0.0716628 -45.1636 -3.51628 4.40636 3.35511 5.08074 25.0023 -0.0 0.0 -0.0 12.157 15.907 -24.5234 -4.67308 19.1013 -62.02 2.1049 46.192 -0.897723 65.0796 2.24642 7.55601 2.78746 -7.24314 -21.7037 0.0 0.0 0.0 36.1951 5.35335 -11.6307 -25.2454 0.196623 3.83791 13.3188 -10.9532 -1.97338 -6.24507 0.0 0.0 -0.0 0.0 -0.0 -12.1848 -5.07725 9.7201 -10.4731 -0.287538 -1.57932 37.6707 17.179 5.02775 -4.4396 0.0 0.0 0.0 0.0 0.0 
